HIERARCHY
ROOT Hips
{
  OFFSET 81.8911 37.3365 -1.82041
  CHANNELS 6 Xposition Yposition Zposition Zrotation Xrotation Yrotation
  JOINT LeftHip
  {
    OFFSET 3.39613 0.414336 -0.244007
    CHANNELS 6 Xposition Yposition Zposition Zrotation Xrotation Yrotation
    JOINT LeftKnee
    {
      OFFSET -0.494118 -18.4065 -1.44888
      CHANNELS 6 Xposition Yposition Zposition Zrotation Xrotation Yrotation
      JOINT LeftAnkle
      {
        OFFSET -1.44361 -17.8765 -0.741163
        CHANNELS 6 Xposition Yposition Zposition Zrotation Xrotation Yrotation
        End Site
        {
          OFFSET -0.628723 -3.0548 0.0854331
        }
      }
    }
  }
  JOINT RightHip
  {
    OFFSET -0.321227 -0.387889 -3.39282
    CHANNELS 6 Xposition Yposition Zposition Zrotation Xrotation Yrotation
    JOINT RightKnee
    {
      OFFSET -0.807573 -18.4521 0.0980198
      CHANNELS 6 Xposition Yposition Zposition Zrotation Xrotation Yrotation
      JOINT RightAnkle
      {
        OFFSET -0.432034 -17.9236 0.871413
        CHANNELS 6 Xposition Yposition Zposition Zrotation Xrotation Yrotation
        End Site
        {
          OFFSET -0.383801 -3.08171 0.300278
        }
      }
    }
  }
  JOINT Chest
  {
    OFFSET -0.0135912 4.54055 -0.517818
    CHANNELS 6 Xposition Yposition Zposition Zrotation Xrotation Yrotation
    JOINT CS_BVH
    {
      OFFSET -0.560759 6.35606 1.56557
      CHANNELS 6 Xposition Yposition Zposition Zrotation Xrotation Yrotation
      JOINT LeftCollar
      {
        OFFSET 1.24757 3.37612 2.9703
        CHANNELS 6 Xposition Yposition Zposition Zrotation Xrotation Yrotation
        JOINT LeftShoulder
        {
          OFFSET 5.55818 -0.646468 -1.56358
          CHANNELS 6 Xposition Yposition Zposition Zrotation Xrotation Yrotation
          JOINT LeftElbow
          {
            OFFSET 3.35138 -11.3429 2.45642
            CHANNELS 6 Xposition Yposition Zposition Zrotation Xrotation Yrotation
            JOINT LeftWrist
            {
              OFFSET 1.07792 -9.71148 -0.978612
              CHANNELS 6 Xposition Yposition Zposition Zrotation Xrotation Yrotation
              End Site
              {
                OFFSET 0.808992 -7.28855 -0.734457
              }
            }
          }
        }
      }
      JOINT RightCollar
      {
        OFFSET -2.02327 4.16621 -0.571302
        CHANNELS 6 Xposition Yposition Zposition Zrotation Xrotation Yrotation
        JOINT RightShoulder
        {
          OFFSET -5.84607 -1.39127 -0.781965
          CHANNELS 6 Xposition Yposition Zposition Zrotation Xrotation Yrotation
          JOINT RightElbow
          {
            OFFSET 0.0718358 -9.58584 5.55634
            CHANNELS 6 Xposition Yposition Zposition Zrotation Xrotation Yrotation
            JOINT RightWrist
            {
              OFFSET -0.792887 -9.45765 2.52121
              CHANNELS 6 Xposition Yposition Zposition Zrotation Xrotation Yrotation
              End Site
              {
                OFFSET -0.576499 -6.87655 1.83314
              }
            }
          }
        }
      }
      JOINT Neck
      {
        OFFSET -0.231217 4.02018 0.432694
        CHANNELS 6 Xposition Yposition Zposition Zrotation Xrotation Yrotation
        JOINT Head
        {
          OFFSET -0.610723 5.12807 0.515727
          CHANNELS 6 Xposition Yposition Zposition Zrotation Xrotation Yrotation
          End Site
          {
            OFFSET 0 4.14001 0
          }
        }
      }
    }
  }
}
MOTION
Frames:	9
Frame Time:	0.0333333
-7.34338 37.8273 1.31959 -7.90281 -8.50627 88.737 3.39613 0.414336 -0.244007 14.625 -36.6233 30.957 -0.494118 -18.4065 -1.44888 43.4498 63.1006 1.83558 -1.44361 -17.8765 -0.741163 5.33282 1.14383 0.0031931 -0.321227 -0.387889 -3.39282 15.2602 -21.9865 68.0824 -0.807573 -18.4521 0.0980198 34.4219 15.2963 -69.9535 -0.432034 -17.9236 0.871413 10.6456 -11.8659 1.59747 -0.0135912 4.54055 -0.517818 13.1902 -21.9218 2.76423 -0.560759 6.35606 1.56557 0.907397 11.6756 2.32216 1.24757 3.37612 2.9703 -3.59392 -1.29282 -3.76625 5.55818 -0.646468 -1.56358 7.68057 16.1284 -2.80013 3.35138 -11.3429 2.45642 -10.8874 -28.4939 -5.56423 1.07792 -9.71148 -0.978612 -1.85903e-010 4.39326e-009 -2.70118e-010 -2.02327 4.16621 -0.571302 0.244028 -0.857317 10.7654 -5.84607 -1.39127 -0.781965 -38.5355 16.0525 35.8708 0.0718358 -9.58584 5.55634 20.8057 -41.2033 13.4971 -0.792887 -9.45765 2.52121 1.70155e-010 -6.14414e-009 -3.06264e-009 -0.231217 4.02018 0.432694 -11.1772 -0.255797 0.32144 -0.610723 5.12807 0.515727 7.62585 8.64461 -5.84086 
-5.53631 37.9464 1.32726 -7.90842 -7.74297 88.3643 3.39613 0.414336 -0.244007 13.8142 -39.0357 32.4516 -0.494118 -18.4065 -1.44888 34.6459 56.7706 7.91089 -1.44361 -17.8765 -0.741163 5.40246 0.716054 -0.0252871 -0.321227 -0.387889 -3.39282 14.0023 -18.532 68.0957 -0.807573 -18.4521 0.0980198 33.371 13.9889 -69.8279 -0.432034 -17.9236 0.871413 10.4593 -11.6861 1.56857 -0.0135912 4.54055 -0.517818 12.6283 -22.2053 3.66078 -0.560759 6.35606 1.56557 0.403403 11.0813 3.08847 1.24757 3.37612 2.9703 -3.8352 -1.28951 -3.52321 5.55818 -0.646468 -1.56358 7.49101 16.5822 -0.721721 3.35138 -11.3429 2.45642 -10.1954 -26.924 -4.69255 1.07792 -9.71148 -0.978612 -1.85903e-010 4.39326e-009 -2.70118e-010 -2.02327 4.16621 -0.571302 -0.137369 -0.922708 10.9451 -5.84607 -1.39127 -0.781965 -38.9452 13.99 35.6478 0.0718358 -9.58584 5.55634 19.019 -42.3543 12.3718 -0.792887 -9.45765 2.52121 1.70155e-010 -6.14414e-009 -3.06264e-009 -0.231217 4.02018 0.432694 -11.8981 -0.364668 0.517937 -0.610723 5.12807 0.515727 7.50372 8.77295 -5.88839 
-3.82698 38.1115 1.29312 -8.19211 -6.92453 87.8115 3.39613 0.414336 -0.244007 13.0406 -40.3522 34.893 -0.494118 -18.4065 -1.44888 26.8147 46.9458 12.5271 -1.44361 -17.8765 -0.741163 5.48122 0.247043 -0.044549 -0.321227 -0.387889 -3.39282 12.5797 -15.1339 67.8916 -0.807573 -18.4521 0.0980198 31.5119 12.3837 -68.922 -0.432034 -17.9236 0.871413 10.038 -10.7588 1.40598 -0.0135912 4.54055 -0.517818 12.3814 -23.2063 4.64534 -0.560759 6.35606 1.56557 -0.594856 11.2184 3.99771 1.24757 3.37612 2.9703 -3.9233 -1.28765 -3.47893 5.55818 -0.646468 -1.56358 7.25318 16.6136 1.5418 3.35138 -11.3429 2.45642 -9.44832 -24.983 -3.70224 1.07792 -9.71148 -0.978612 -1.85903e-010 4.39326e-009 -2.70118e-010 -2.02327 4.16621 -0.571302 -0.463249 -0.976126 11.1322 -5.84607 -1.39127 -0.781965 -39.1712 12.0419 35.0472 0.0718358 -9.58584 5.55634 17.385 -43.0261 11.3023 -0.792887 -9.45765 2.52121 1.70155e-010 -6.14414e-009 -3.06264e-009 -0.231217 4.02018 0.432694 -12.2362 -0.684384 0.566958 -0.610723 5.12807 0.515727 7.07347 8.94365 -5.80372 
-2.2497 38.2749 1.23432 -8.31281 -6.19888 87.2043 3.39613 0.414336 -0.244007 12.652 -39.913 37.1949 -0.494118 -18.4065 -1.44888 18.0736 34.4692 17.753 -1.44361 -17.8765 -0.741163 5.64888 -0.19583 -0.0369293 -0.321227 -0.387889 -3.39282 11.187 -11.3705 68.0918 -0.807573 -18.4521 0.0980198 28.8843 10.5555 -68.306 -0.432034 -17.9236 0.871413 9.72411 -9.1417 1.17069 -0.0135912 4.54055 -0.517818 12.0991 -23.8114 5.49184 -0.560759 6.35606 1.56557 -1.33327 11.193 4.7021 1.24757 3.37612 2.9703 -4.27596 -1.28757 -3.0577 5.55818 -0.646468 -1.56358 7.14812 16.7391 3.26823 3.35138 -11.3429 2.45642 -8.55683 -23.8433 -2.88731 1.07792 -9.71148 -0.978612 -1.85903e-010 4.39326e-009 -2.70118e-010 -2.02327 4.16621 -0.571302 -0.753772 -1.0735 11.7206 -5.84607 -1.39127 -0.781965 -39.708 10.5814 34.6743 0.0718358 -9.58584 5.55634 16.1487 -43.6745 10.4989 -0.792887 -9.45765 2.52121 1.70155e-010 -6.14414e-009 -3.06264e-009 -0.231217 4.02018 0.432694 -13.0292 -0.756968 0.848574 -0.610723 5.12807 0.515727 7.30625 8.88599 -5.9131 
-0.74092 38.3818 1.11233 -8.71488 -5.86722 86.5766 3.39613 0.414336 -0.244007 12.4489 -39.059 39.2621 -0.494118 -18.4065 -1.44888 11.2063 21.2504 21.7436 -1.44361 -17.8765 -0.741163 5.14816 -0.562198 0.0245945 -0.321227 -0.387889 -3.39282 10.1936 -8.40941 67.9889 -0.807573 -18.4521 0.0980198 26.686 9.28883 -68.0841 -0.432034 -17.9236 0.871413 9.66432 -7.71478 0.988152 -0.0135912 4.54055 -0.517818 12.5588 -25.1466 6.41327 -0.560759 6.35606 1.56557 -2.30347 11.7997 5.43723 1.24757 3.37612 2.9703 -4.42617 -1.28789 -3.00212 5.55818 -0.646468 -1.56358 6.79114 16.9416 4.74137 3.35138 -11.3429 2.45642 -7.54506 -23.104 -2.12688 1.07792 -9.71148 -0.978612 -1.85903e-010 4.39326e-009 -2.70118e-010 -2.02327 4.16621 -0.571302 -0.876827 -1.08825 11.718 -5.84607 -1.39127 -0.781965 -39.9906 9.03759 33.9007 0.0718358 -9.58584 5.55634 15.2413 -43.8422 9.89853 -0.792887 -9.45765 2.52121 1.70155e-010 -6.14414e-009 -3.06264e-009 -0.231217 4.02018 0.432694 -13.1701 -0.650315 0.931127 -0.610723 5.12807 0.515727 6.94601 8.53638 -5.79688 
0.987527 38.0977 0.951157 -8.76983 -6.75881 85.7521 3.39613 0.414336 -0.244007 13.7828 -41.6979 44.6515 -0.494118 -18.4065 -1.44888 12.937 16.8285 19.4383 -1.44361 -17.8765 -0.741163 2.07212 -2.74473 -0.0461726 -0.321227 -0.387889 -3.39282 10.5234 -5.99739 67.4964 -0.807573 -18.4521 0.0980198 27.1701 9.45117 -67.3658 -0.432034 -17.9236 0.871413 9.43061 -7.78371 0.974982 -0.0135912 4.54055 -0.517818 14.7017 -26.1069 7.43861 -0.560759 6.35606 1.56557 -3.1917 11.7628 5.99131 1.24757 3.37612 2.9703 -4.60946 -1.28864 -2.96431 5.55818 -0.646468 -1.56358 6.63505 17.5927 5.53863 3.35138 -11.3429 2.45642 -7.04386 -23.038 -1.83294 1.07792 -9.71148 -0.978612 -1.85903e-010 4.39326e-009 -2.70118e-010 -2.02327 4.16621 -0.571302 -1.22556 -1.15275 11.9224 -5.84607 -1.39127 -0.781965 -39.8298 8.15489 33.4105 0.0718358 -9.58584 5.55634 14.3693 -43.9952 9.31245 -0.792887 -9.45765 2.52121 1.70155e-010 -6.14414e-009 -3.06264e-009 -0.231217 4.02018 0.432694 -13.2545 -0.13257 1.0453 -0.610723 5.12807 0.515727 6.41113 8.05368 -5.62999 
2.78945 37.8001 0.712139 -9.15646 -6.94244 85.1321 3.39613 0.414336 -0.244007 14.5044 -43.0597 49.2873 -0.494118 -18.4065 -1.44888 14.0492 15.4042 16.0469 -1.44361 -17.8765 -0.741163 2.26392 -3.23615 -0.052156 -0.321227 -0.387889 -3.39282 9.25515 -3.98236 66.9405 -0.807573 -18.4521 0.0980198 28.6093 8.9337 -65.1724 -0.432034 -17.9236 0.871413 8.13954 -7.47401 0.772218 -0.0135912 4.54055 -0.517818 15.6974 -27.4897 8.11794 -0.560759 6.35606 1.56557 -3.90612 12.727 6.53344 1.24757 3.37612 2.9703 -4.62553 -1.28938 -2.95354 5.55818 -0.646468 -1.56358 6.53259 17.8797 5.86093 3.35138 -11.3429 2.45642 -6.83073 -23.0665 -1.73041 1.07792 -9.71148 -0.978612 -1.85903e-010 4.39326e-009 -2.70118e-010 -2.02327 4.16621 -0.571302 -1.23709 -1.16278 11.9898 -5.84607 -1.39127 -0.781965 -39.9655 7.43136 33.0099 0.0718358 -9.58584 5.55634 14.2022 -43.9176 9.20158 -0.792887 -9.45765 2.52121 1.70155e-010 -6.14414e-009 -3.06264e-009 -0.231217 4.02018 0.432694 -13.0986 -0.452346 1.16374 -0.610723 5.12807 0.515727 6.07 8.36548 -5.31243 
4.62486 37.4835 0.432083 -9.25804 -6.8073 85.2876 3.39613 0.414336 -0.244007 12.2707 -41.4722 43.0661 -0.494118 -18.4065 -1.44888 13.0652 15.9127 16.7535 -1.44361 -17.8765 -0.741163 4.11915 -1.51202 -0.0189934 -0.321227 -0.387889 -3.39282 7.28554 -2.09576 67.6489 -0.807573 -18.4521 0.0980198 30.943 7.19413 -63.8912 -0.432034 -17.9236 0.871413 6.65483 -6.75375 0.49477 -0.0135912 4.54055 -0.517818 15.107 -27.7472 7.89698 -0.560759 6.35606 1.56557 -4.1326 13.3031 6.69199 1.24757 3.37612 2.9703 -4.61707 -1.28991 -2.98275 5.55818 -0.646468 -1.56358 6.56392 18.029 5.79613 3.35138 -11.3429 2.45642 -7.0074 -23.1157 -1.84139 1.07792 -9.71148 -0.978612 -1.85903e-010 4.39326e-009 -2.70118e-010 -2.02327 4.16621 -0.571302 -1.04741 -1.11844 11.8026 -5.84607 -1.39127 -0.781965 -39.9512 7.28838 33.1186 0.0718358 -9.58584 5.55634 13.8122 -44.1282 8.93129 -0.792887 -9.45765 2.52121 1.70155e-010 -6.14414e-009 -3.06264e-009 -0.231217 4.02018 0.432694 -12.7989 -0.854923 0.995384 -0.610723 5.12807 0.515727 5.64154 8.68271 -5.16759 
6.52741 37.2033 0.105173 -9.29956 -6.34762 85.1834 3.39613 0.414336 -0.244007 10.5118 -40.7322 39.1843 -0.494118 -18.4065 -1.44888 13.6185 18.3637 17.7486 -1.44361 -17.8765 -0.741163 4.68169 -0.872465 -0.0411398 -0.321227 -0.387889 -3.39282 5.56888 -0.526124 68.4943 -0.807573 -18.4521 0.0980198 33.5891 6.63481 -61.9852 -0.432034 -17.9236 0.871413 5.55532 -5.56357 0.213523 -0.0135912 4.54055 -0.517818 14.1475 -28.3696 7.79332 -0.560759 6.35606 1.56557 -4.22377 14.4355 6.91797 1.24757 3.37612 2.9703 -4.44509 -1.29322 -3.10434 5.55818 -0.646468 -1.56358 6.42272 18.0583 5.40251 3.35138 -11.3429 2.45642 -7.22656 -23.4005 -2.04149 1.07792 -9.71148 -0.978612 -1.85903e-010 4.39326e-009 -2.70118e-010 -2.02327 4.16621 -0.571302 -0.529021 -1.02694 11.54 -5.84607 -1.39127 -0.781965 -39.9241 8.0669 33.395 0.0718358 -9.58584 5.55634 13.394 -44.278 8.62987 -0.792887 -9.45765 2.52121 1.70155e-010 -6.14414e-009 -3.06264e-009 -0.231217 4.02018 0.432694 -12.0482 -0.881855 0.796021 -0.610723 5.12807 0.515727 5.06268 8.69276 -4.88204 
